<svg width="343" height="56" viewBox="0 0 343 56" fill="none" xmlns="http://www.w3.org/2000/svg">
<rect width="343" height="56" rx="8" fill="#FFE812"/>
<path d="M124 20.1428C119.069 20.1428 115.071 23.1487 115.071 26.8562C115.071 29.2531 116.743 31.3565 119.256 32.5442C119.12 32.9939 118.378 35.4378 118.348 35.6297C118.348 35.6297 118.33 35.7739 118.428 35.8289C118.526 35.884 118.641 35.8414 118.641 35.8414C118.922 35.804 121.899 33.81 122.414 33.464C122.929 33.5334 123.459 33.5695 124 33.5695C128.931 33.5695 132.929 30.564 132.929 26.8562C132.929 23.1487 128.931 20.1428 124 20.1428Z" fill="black"/>
<path d="M149.781 22.75C149.789 26.8828 148.516 30.5547 143.391 33.0938L142.594 31.9375C145.117 30.7031 146.625 29.1953 147.469 27.4219L142.891 27.8594L142.672 26.5625L147.922 26.2188C148.125 25.5078 148.242 24.75 148.297 23.9531H143.391V22.75H149.781ZM153.422 21.3281V26.9062H155.594V28.1406H153.422V35.3125H151.922V21.3281H153.422ZM163.609 22.75C163.617 26.8828 162.344 30.5547 157.219 33.0938L156.422 31.9375C158.945 30.7031 160.453 29.1953 161.297 27.4219L156.719 27.8594L156.5 26.5625L161.75 26.2188C161.953 25.5078 162.07 24.75 162.125 23.9531H157.219V22.75H163.609ZM167.25 21.3281V26.9062H169.422V28.1406H167.25V35.3125H165.75V21.3281H167.25ZM176.531 22.1875C179.539 22.1875 181.719 23.6641 181.719 25.9062C181.719 27.9688 179.898 29.375 177.281 29.5938V32.3438H182.969V33.5781H170.172V32.3438H175.797V29.5938C173.211 29.3828 171.367 27.9766 171.375 25.9062C171.367 23.6641 173.562 22.1875 176.531 22.1875ZM176.531 23.375C174.391 23.3828 172.82 24.3672 172.828 25.9062C172.82 27.4531 174.391 28.4375 176.531 28.4375C178.703 28.4375 180.258 27.4531 180.266 25.9062C180.258 24.3672 178.703 23.3828 176.531 23.375ZM200.766 32.4219V33.6406H187.969V32.4219H193.594V29.9531H189.531V25.5H197.734V23.5312H189.5V22.3281H199.219V26.6875H191V28.75H199.547V29.9531H195.078V32.4219H200.766ZM212.891 22.75V24.2344C212.883 26.0703 212.883 28.0391 212.359 31.0156L210.859 30.875C211.414 28.0703 211.414 26.0078 211.406 24.2344V23.9688H203.156V22.75H212.891ZM214.562 32.1094V33.3438H201.797V32.1094H214.562ZM227.234 21.3438V31.5156H225.734V21.3438H227.234ZM227.656 33.8125V35.0312H218.078V30.4844H219.562V33.8125H227.656ZM219.641 22.2812C221.75 22.2891 223.367 23.7344 223.359 25.7656C223.367 27.7891 221.75 29.2422 219.641 29.25C217.508 29.2422 215.898 27.7891 215.906 25.7656C215.898 23.7344 217.508 22.2891 219.641 22.2812ZM219.641 23.5781C218.344 23.5781 217.359 24.4531 217.359 25.7656C217.359 27.0547 218.344 27.9219 219.641 27.9219C220.93 27.9219 221.906 27.0547 221.906 25.7656C221.906 24.4531 220.93 23.5781 219.641 23.5781Z" fill="black"/>
</svg>
