<svg width="343" height="56" viewBox="0 0 343 56" fill="none" xmlns="http://www.w3.org/2000/svg">
<rect width="343" height="56" rx="8" fill="white"/>
<path d="M118.882 21.205C118.184 22.0447 117.067 22.707 115.95 22.6124C115.81 21.477 116.357 20.2707 116.997 19.5256C117.695 18.6623 118.916 18.0473 119.905 18C120.022 19.1827 119.568 20.3417 118.882 21.205ZM119.894 22.8371C118.277 22.7425 116.892 23.7714 116.125 23.7714C115.345 23.7714 114.17 22.8844 112.891 22.908C111.227 22.9317 109.68 23.8896 108.831 25.4153C107.086 28.4665 108.377 32.9843 110.064 35.4679C110.89 36.6979 111.879 38.0461 113.181 37.9988C114.415 37.9515 114.903 37.1828 116.392 37.1828C117.893 37.1828 118.323 37.9988 119.626 37.9751C120.975 37.9515 121.825 36.7452 122.651 35.5152C123.593 34.1197 123.977 32.7596 124 32.6886C123.977 32.665 121.394 31.6597 121.371 28.6321C121.348 26.1012 123.407 24.8949 123.5 24.824C122.336 23.0736 120.522 22.8844 119.894 22.8371Z" fill="black"/>
<path d="M143.125 34L142.031 30.9688H137.297L136.188 34H134.344L138.688 22.6875H140.641L144.984 34H143.125ZM137.859 29.4062H141.453L139.703 24.5781H139.625L137.859 29.4062ZM146.344 37.375V25.9375H147.953V27.1406H148.016C148.547 26.2031 149.414 25.7188 150.562 25.7188C152.789 25.7188 154.383 27.5469 154.375 29.9688C154.383 32.3906 152.789 34.2188 150.562 34.2188C149.414 34.2188 148.539 33.7266 148.016 32.7812H147.953V37.375H146.344ZM150.312 32.7031C151.742 32.7109 152.742 31.5703 152.734 29.9688C152.742 28.3672 151.742 27.2266 150.312 27.2344C148.898 27.2266 147.891 28.3594 147.891 29.9688C147.891 31.5781 148.898 32.7109 150.312 32.7031ZM156.031 37.375V25.9375H157.641V27.1406H157.703C158.234 26.2031 159.102 25.7188 160.25 25.7188C162.477 25.7188 164.07 27.5469 164.062 29.9688C164.07 32.3906 162.477 34.2188 160.25 34.2188C159.102 34.2188 158.227 33.7266 157.703 32.7812H157.641V37.375H156.031ZM160 32.7031C161.43 32.7109 162.43 31.5703 162.422 29.9688C162.43 28.3672 161.43 27.2266 160 27.2344C158.586 27.2266 157.578 28.3594 157.578 29.9688C157.578 31.5781 158.586 32.7109 160 32.7031ZM165.719 34V22.6875H167.328V34H165.719ZM173.234 34.2188C170.75 34.2188 168.969 32.3984 168.969 29.9688C168.969 27.5234 170.727 25.7188 173.078 25.7188C175.43 25.7188 177.062 27.5234 177.062 29.9688C177.062 30.1484 177.055 30.3359 177.031 30.5156H170.625C170.82 31.8906 171.859 32.7812 173.25 32.7812C174.273 32.7812 175 32.3047 175.375 31.5156L176.797 32.0938C176.156 33.3906 174.914 34.2188 173.234 34.2188ZM170.688 29.0938H175.359C175.25 28 174.352 27.1562 173.078 27.1562C171.867 27.1562 170.961 27.9141 170.688 29.0938ZM191.016 32.4219V33.6406H178.219V32.4219H183.844V29.9531H179.781V25.5H187.984V23.5312H179.75V22.3281H189.469V26.6875H181.25V28.75H189.797V29.9531H185.328V32.4219H191.016ZM208.812 32.4219V33.6406H196.016V32.4219H201.641V29.9531H197.578V25.5H205.781V23.5312H197.547V22.3281H207.266V26.6875H199.047V28.75H207.594V29.9531H203.125V32.4219H208.812ZM220.938 22.75V24.2344C220.93 26.0703 220.93 28.0391 220.406 31.0156L218.906 30.875C219.461 28.0703 219.461 26.0078 219.453 24.2344V23.9688H211.203V22.75H220.938ZM222.609 32.1094V33.3438H209.844V32.1094H222.609ZM235.281 21.3438V31.5156H233.781V21.3438H235.281ZM235.703 33.8125V35.0312H226.125V30.4844H227.609V33.8125H235.703ZM227.688 22.2812C229.797 22.2891 231.414 23.7344 231.406 25.7656C231.414 27.7891 229.797 29.2422 227.688 29.25C225.555 29.2422 223.945 27.7891 223.953 25.7656C223.945 23.7344 225.555 22.2891 227.688 22.2812ZM227.688 23.5781C226.391 23.5781 225.406 24.4531 225.406 25.7656C225.406 27.0547 226.391 27.9219 227.688 27.9219C228.977 27.9219 229.953 27.0547 229.953 25.7656C229.953 24.4531 228.977 23.5781 227.688 23.5781Z" fill="black"/>
</svg>
