<svg width="193" height="118" viewBox="0 0 193 118" fill="none" xmlns="http://www.w3.org/2000/svg">
<path fill-rule="evenodd" clip-rule="evenodd" d="M98.5 0.847717H94.5V13.815V28.4639V28.4949H91.3188L91.3239 28.5H66.5L66.5 32.4749H94.5V37.815V60.8477H98.5V37.815V32.4749H126.5L126.5 28.5H101.676L101.681 28.4949H98.5V28.4639V13.815V0.847717ZM100.024 24.4949H105.681L119.127 11.0487L116.299 8.22028L100.024 24.4949ZM73.8726 50.6467L88.0444 36.4749H93.7013L76.701 53.4751L73.8726 50.6467ZM116.299 53.4751L99.2987 36.4749H104.956L119.127 50.6467L116.299 53.4751ZM87.3188 24.4949H92.9756L76.701 8.22028L73.8726 11.0487L87.3188 24.4949Z" fill="#F0F0F9"/>
<path d="M171.91 117.152C160.441 117.152 151.758 108.47 151.758 97C151.758 85.5303 160.441 76.8477 171.91 76.8477C183.38 76.8477 192.062 85.5303 192.062 97C192.062 108.47 183.38 117.152 171.91 117.152ZM171.91 112.65C180.914 112.65 187.239 106.165 187.239 97C187.239 87.835 180.914 81.3498 171.91 81.3498C162.906 81.3498 156.582 87.835 156.582 97C156.582 106.165 162.906 112.65 171.91 112.65Z" fill="#F0F0F9"/>
<path d="M128.283 117.152C116.706 117.152 107.97 108.47 107.97 97C107.97 85.5303 116.652 76.8477 128.122 76.8477C134.178 76.8477 139.86 79.2596 143.718 84.1904L139.967 87.031C137.073 83.1185 132.892 81.3498 128.122 81.3498C119.118 81.3498 112.793 87.835 112.793 97C112.793 106.165 119.171 112.65 128.283 112.65C135.84 112.65 140.905 108.228 141.789 101.395H129.783V97H146.613C146.666 97.6431 146.72 98.3935 146.72 99.251C146.72 109.649 139.056 117.152 128.283 117.152Z" fill="#F0F0F9"/>
<path d="M79.1347 116.402V77.5981H103.146V81.993H83.8512V93.8378H101.645V98.2327H83.8512V112.007H103.575V116.402H79.1347Z" fill="#F0F0F9"/>
<path d="M41.5636 116.402V77.5981H51.8542C64.5565 77.5981 72.8104 85.2088 72.8104 97C72.8104 108.791 64.5565 116.402 51.8542 116.402H41.5636ZM46.2801 112.007H51.8542C61.9839 112.007 67.9867 106.433 67.9867 97C67.9867 87.567 61.9839 81.993 51.8542 81.993H46.2801V112.007Z" fill="#F0F0F9"/>
<path d="M31.3803 116.402L27.1462 105.093H10.3169L6.08276 116.402H0.9375L15.7837 77.5981H21.6793L36.5256 116.402H31.3803ZM11.9784 100.698H25.5383L18.8387 82.9041H18.6243L11.9784 100.698Z" fill="#F0F0F9"/>
</svg>
