<svg width="10" height="16" viewBox="0 0 10 16" fill="none" xmlns="http://www.w3.org/2000/svg">
<path d="M4.99999 15.9166C3.65598 15.9166 2.55608 15.7241 1.7003 15.3389C0.844538 14.9538 0.416656 14.4519 0.416656 13.8333C0.416656 13.5075 0.556615 13.2094 0.836531 12.9391C1.11645 12.6688 1.50373 12.4348 1.99839 12.2371L2.23718 13.0352C1.94765 13.1581 1.72168 13.2876 1.55928 13.4239C1.39689 13.5601 1.297 13.6966 1.25962 13.8333C1.3547 14.2051 1.75801 14.5064 2.46955 14.7372C3.18108 14.9679 4.02456 15.0833 4.99999 15.0833C5.96473 15.0833 6.80634 14.9679 7.52482 14.7372C8.24331 14.5064 8.65009 14.2051 8.74518 13.8333C8.70779 13.6966 8.60789 13.5628 8.44549 13.4319C8.2831 13.301 8.05714 13.1688 7.76762 13.0352L8.02243 12.2371C8.51708 12.4348 8.90089 12.6688 9.17387 12.9391C9.44684 13.2094 9.58332 13.5075 9.58332 13.8333C9.58332 14.4519 9.15544 14.9538 8.29968 15.3389C7.4439 15.7241 6.344 15.9166 4.99999 15.9166ZM4.99999 11.6362C5.24999 11.1458 5.54593 10.6455 5.8878 10.1354C6.22969 9.62524 6.58066 9.1378 6.9407 8.67306C7.47595 7.97434 7.90437 7.33892 8.22595 6.76681C8.54753 6.19469 8.70832 5.48074 8.70832 4.62498C8.70832 3.60148 8.34614 2.72755 7.62178 2.00319C6.89742 1.27883 6.02349 0.916646 4.99999 0.916646C3.97649 0.916646 3.10256 1.27883 2.3782 2.00319C1.65384 2.72755 1.29166 3.60148 1.29166 4.62498C1.29166 5.48074 1.45512 6.19469 1.78205 6.76681C2.10897 7.33892 2.53471 7.97434 3.05928 8.67306C3.41932 9.1378 3.77029 9.62524 4.11218 10.1354C4.45405 10.6455 4.74999 11.1458 4.99999 11.6362ZM4.99999 12.9038C4.87927 12.9038 4.76709 12.8587 4.66345 12.7684C4.55982 12.6781 4.48023 12.5673 4.42468 12.4359C4.0625 11.5566 3.65437 10.8184 3.2003 10.2211C2.74625 9.62392 2.31142 9.05181 1.89582 8.50479C1.49411 7.95778 1.1541 7.38994 0.875781 6.80127C0.597476 6.21259 0.458323 5.48716 0.458323 4.62498C0.458323 3.3536 0.897427 2.27882 1.77564 1.40063C2.65383 0.522418 3.72862 0.083313 4.99999 0.083313C6.27137 0.083313 7.34615 0.522418 8.22434 1.40063C9.10255 2.27882 9.54166 3.3536 9.54166 4.62498C9.54166 5.48716 9.40598 6.21259 9.13461 6.80127C8.86324 7.38994 8.51975 7.95778 8.10416 8.50479C7.70245 9.05181 7.27109 9.62392 6.81009 10.2211C6.34908 10.8184 5.93748 11.5566 5.5753 12.4359C5.51975 12.5673 5.44016 12.6781 5.33653 12.7684C5.23289 12.8587 5.12071 12.9038 4.99999 12.9038ZM4.99999 5.89902C5.35789 5.89902 5.65971 5.77616 5.90545 5.53044C6.15117 5.2847 6.27403 4.98288 6.27403 4.62498C6.27403 4.26708 6.15117 3.96526 5.90545 3.71952C5.65971 3.4738 5.35789 3.35094 4.99999 3.35094C4.64209 3.35094 4.34027 3.4738 4.09453 3.71952C3.84881 3.96526 3.72595 4.26708 3.72595 4.62498C3.72595 4.98288 3.84881 5.2847 4.09453 5.53044C4.34027 5.77616 4.64209 5.89902 4.99999 5.89902Z" fill="#9494A8"/>
</svg>
